<?xml version="1.0" encoding="UTF-8" standalone="no"?>
<!-- Created with Inkscape (http://www.inkscape.org/) -->

<svg
   width="210mm"
   height="297mm"
   viewBox="0 0 210 297"
   version="1.1"
   id="svg5"
   inkscape:export-filename="F:\Projects\mezzacotta-generator\dungeon\web\d20_bg.png"
   inkscape:export-xdpi="96"
   inkscape:export-ydpi="96"
   inkscape:version="1.1 (c68e22c387, 2021-05-23)"
   sodipodi:docname="d20_bg.svg"
   xmlns:inkscape="http://www.inkscape.org/namespaces/inkscape"
   xmlns:sodipodi="http://sodipodi.sourceforge.net/DTD/sodipodi-0.dtd"
   xmlns="http://www.w3.org/2000/svg"
   xmlns:svg="http://www.w3.org/2000/svg">
  <sodipodi:namedview
     id="namedview7"
     pagecolor="#ffffff"
     bordercolor="#666666"
     borderopacity="1.0"
     inkscape:pageshadow="2"
     inkscape:pageopacity="0.0"
     inkscape:pagecheckerboard="0"
     inkscape:document-units="mm"
     showgrid="false"
     inkscape:zoom="3.1108586"
     inkscape:cx="257.32446"
     inkscape:cy="197.37316"
     inkscape:window-width="3840"
     inkscape:window-height="2066"
     inkscape:window-x="2869"
     inkscape:window-y="-11"
     inkscape:window-maximized="1"
     inkscape:current-layer="layer1" />
  <defs
     id="defs2">
    <inkscape:path-effect
       effect="roughen"
       id="path-effect4362"
       is_visible="true"
       lpeversion="1.1"
       method="size"
       max_segment_size="0.422944"
       segments="2"
       displace_x="0.12;1"
       displace_y="0.12;1"
       global_randomize="1;1"
       handles="along"
       shift_nodes="true"
       fixed_displacement="false"
       spray_tool_friendly="false" />
    <inkscape:path-effect
       effect="roughen"
       id="path-effect4334"
       is_visible="true"
       lpeversion="1.1"
       method="size"
       max_segment_size="0.422944"
       segments="2"
       displace_x="0.12;1"
       displace_y="0.12;1"
       global_randomize="1;1"
       handles="along"
       shift_nodes="true"
       fixed_displacement="false"
       spray_tool_friendly="false" />
    <inkscape:path-effect
       effect="roughen"
       id="path-effect4332"
       is_visible="true"
       lpeversion="1.1"
       method="size"
       max_segment_size="0.554807"
       segments="2"
       displace_x="0.13;1"
       displace_y="0.13;1"
       global_randomize="1;1"
       handles="along"
       shift_nodes="true"
       fixed_displacement="false"
       spray_tool_friendly="false" />
    <inkscape:path-effect
       effect="roughen"
       id="path-effect4329"
       is_visible="true"
       lpeversion="1.1"
       method="size"
       max_segment_size="0.935828"
       segments="2"
       displace_x="0.11;1"
       displace_y="0.11;1"
       global_randomize="1;1"
       handles="along"
       shift_nodes="true"
       fixed_displacement="false"
       spray_tool_friendly="false" />
    <inkscape:path-effect
       effect="roughen"
       id="path-effect4301"
       is_visible="true"
       lpeversion="1.1"
       method="size"
       max_segment_size="0.935828"
       segments="2"
       displace_x="0.11;1"
       displace_y="0.11;1"
       global_randomize="1;1"
       handles="along"
       shift_nodes="true"
       fixed_displacement="false"
       spray_tool_friendly="false" />
    <inkscape:path-effect
       effect="roughen"
       id="path-effect4151"
       is_visible="true"
       lpeversion="1.1"
       method="size"
       max_segment_size="0.705495"
       segments="2"
       displace_x="0.2;1"
       displace_y="0.16;1"
       global_randomize="1;1"
       handles="along"
       shift_nodes="true"
       fixed_displacement="false"
       spray_tool_friendly="false" />
    <inkscape:path-effect
       effect="rough_hatches"
       id="path-effect4149"
       is_visible="true"
       lpeversion="1"
       direction="23.346264,20.213883 , 8.8186822,0"
       dist_rdm="75;1"
       growth="0"
       do_bend="true"
       bender="23.346264,25.213883 , 5,0"
       bottom_edge_variation="3.8923648;1"
       top_edge_variation="3.8923648;1"
       bottom_tgt_variation="0;1"
       top_tgt_variation="0;1"
       scale_bf="1"
       scale_bb="1"
       scale_tf="1"
       scale_tb="1"
       top_smth_variation="0;1"
       bottom_smth_variation="0;1"
       fat_output="true"
       stroke_width_top="1"
       stroke_width_bottom="1"
       front_thickness="1"
       back_thickness="0.25" />
    <inkscape:path-effect
       effect="sketch"
       id="path-effect4147"
       is_visible="true"
       lpeversion="1"
       nbiter_approxstrokes="5"
       strokelength="100"
       strokelength_rdm="0.3;1"
       strokeoverlap="0.3"
       strokeoverlap_rdm="0.3;1"
       ends_tolerance="0.1;1"
       parallel_offset="5;1"
       tremble_size="5;1"
       tremble_frequency="1"
       nbtangents="5"
       tgt_places_rdmness="1;1"
       tgtscale="10"
       tgtlength="100"
       tgtlength_rdm="0.3;1" />
    <inkscape:path-effect
       effect="dashed_stroke"
       id="path-effect4145"
       is_visible="true"
       lpeversion="1"
       numberdashes="3"
       holefactor="0"
       splitsegments="true"
       halfextreme="true"
       unifysegment="true"
       message="Add &lt;b&gt;&quot;Fill Between Many LPE&quot;&lt;/b&gt; to add fill." />
  </defs>
  <g
     inkscape:label="Layer 1"
     inkscape:groupmode="layer"
     id="layer1">
    <rect
       style="fill:#f7ecd5;fill-opacity:1;stroke:none;stroke-width:0.839345;stroke-linecap:round;stroke-linejoin:round;stroke-miterlimit:4;stroke-dasharray:none;stroke-opacity:1"
       id="rect4387"
       width="230.40465"
       height="152.07216"
       x="-40.399483"
       y="-25.770618" />
    <path
       id="path1548"
       style="fill:none;stroke:#643f27;stroke-width:0.8;stroke-linecap:butt;stroke-linejoin:miter;stroke-miterlimit:4;stroke-dasharray:none;stroke-opacity:1"
       d="m 39.417764,36.300869 -0.466505,-0.47987 -0.731318,-0.405631 -0.518894,-0.188922 -0.51027,-0.358539 -0.549323,-0.388094 -0.666794,-0.453494 -0.554823,-0.216449 -0.388964,-0.376366 -0.64231,-0.486163 -0.56484,-0.423669 -0.519757,-0.383247 -0.493913,-0.419927 0.364541,-0.511517 0.277032,-0.763663 0.370219,-0.537639 0.274678,-0.587027 0.32006,-0.586344 0.325543,-0.596187 0.443431,-0.593866 0.308739,-0.600435 0.288773,-0.562165 0.314918,-0.606045 0.357304,-0.583373 0.32058,-0.592611 0.323894,-0.584996 0.285309,-0.683019 0.349405,-0.504567 0.347186,-0.700412 0.223211,-0.584443 0.328141,-0.57451 0.315134,-0.663402 0.214302,-0.512869 0.3456,-0.60863 0.354496,-0.644556 0.316894,-0.564125 0.386752,-0.620851 0.302489,-0.468519 m -19.088282,27.79098 0.44298,-0.510359 0.417026,-0.541592 0.330399,-0.516172 0.432796,-0.631214 0.479889,-0.490283 0.304483,-0.383011 0.699488,-0.539424 0.372029,-0.661713 0.370534,-0.509629 0.436977,-0.508086 0.439638,-0.540661 0.438046,-0.496869 0.448789,-0.528701 0.423048,-0.512062 0.555114,-0.526101 0.330421,-0.461338 0.462814,-0.421478 0.511175,-0.579728 0.331267,-0.58653 0.541686,-0.572274 0.29825,-0.41368 0.545541,-0.553871 0.406414,-0.476889 0.526977,-0.506086 0.396989,-0.387786 M 21.780402,44.675707 21.547701,44.13847 21.184409,43.503759 20.960396,42.780232 20.745448,42.292305 20.130056,41.544319 19.79495,41.172225 19.502671,40.479711 19.135102,39.897489 18.8654,39.342511 18.637737,38.775916 18.188291,38.035659 17.866523,37.476313 17.519864,36.913996 17.094981,36.278875 16.750903,35.643266 16.49419,35.130718 16.177329,34.53304 15.765191,33.966757 15.42436,33.333514 14.837683,32.753204 14.595607,32.26286 14.123234,31.822597 13.766797,31.223737 13.340833,30.677661 12.899127,30.136144 m -7.1902276,3.452574 0.535952,-0.160482 0.7105294,-0.377727 0.7722684,-0.235871 0.4707446,-0.187545 0.6247791,-0.285037 0.5855765,-0.338885 0.7719306,-0.371888 0.44909,-0.248344 0.701102,-0.361645 0.474429,-0.260427 0.563942,-0.445761 0.603221,-0.19194 m -5.6977036,-15.996271 0.1282895,0.631082 0.1781571,0.657507 0.2967757,0.649236 0.3441432,0.614592 0.2602527,0.611668 0.1432662,0.716984 0.1992661,0.604756 0.2178469,0.645043 0.087447,0.648989 0.2965725,0.68749 0.1736583,0.653879 0.367496,0.544835 0.1266148,0.568515 0.263073,0.719 0.146284,0.740531 0.324534,0.667355 0.225978,0.589469 0.232871,0.610127 0.240574,0.627703 0.195264,0.718019 0.248451,0.564077 0.278845,0.619856 0.298394,0.689191 0.28081,0.625551 0.294586,0.498555 m 27.859418,-13.191859 -0.794388,-0.05858 -0.594552,-0.13535 -0.485477,-0.104077 -0.901126,-0.207689 -0.469021,-0.0081 -0.844299,-0.09431 -0.637998,-0.09762 -0.771979,-0.215883 -0.495807,-0.05508 -0.70924,-0.158853 -0.652913,-0.165686 -0.640359,-0.117339 -0.591857,-0.04126 -0.818133,-0.108896 -0.72022,-0.193436 -0.470292,-0.131888 -0.763663,-0.10096 -0.667265,-0.153398 -0.763455,-0.0062 -0.544749,-0.167509 -0.727506,-0.16367 -0.663245,-0.145996 -0.642047,-0.153435 -0.689352,-0.162032 -0.551077,-0.06053 m 0.538516,-8.0791759 -0.04884,0.6635043 -0.05519,0.7024305 -0.03556,0.6466767 -0.05209,0.6535279 0.07569,0.5800277 -0.142773,0.7452479 -0.01811,0.6418479 -0.05929,0.661067 -0.08839,0.683551 -0.0558,0.717404 -0.152695,0.659196 -0.0296,0.655781 m 8.603936,17.873562 -0.629325,0.09987 -0.624162,-0.03199 -0.899491,-0.02557 -0.653401,-0.04636 -0.632921,-0.05156 -0.802799,-0.04305 -0.743735,-0.06277 -0.518296,-0.06061 -0.681805,-0.04772 -0.68665,-0.07654 -0.710143,-0.06243 -0.747121,-0.06743 -0.625407,-0.06523 -0.634474,-0.109052 -0.658549,-0.06131 -0.741968,-0.06196 -0.707369,-0.02454 -0.815114,0.0501 -0.52937,-0.106456 -0.689808,-0.06896 -0.529174,0.04234 -0.843378,-0.09847 -0.727321,-0.03295 -0.685338,-0.05326 -0.67494,-0.05998 -0.504927,-0.171351 -0.863703,-0.07861 -0.67633,0.0062 -0.702629,-0.106213 0.217944,-0.460746 0.544239,-0.710926 0.247695,-0.604062 0.395097,-0.533687 0.427293,-0.614883 0.396955,-0.655549 0.461673,-0.40184 0.506939,-0.608178 0.42072,-0.45424 0.379413,-0.568337 0.469433,-0.520986 0.376385,-0.551281 0.435748,-0.48382 0.41415,-0.660546 0.283957,-0.594544 0.40973,-0.588856 0.22332,-0.669464 0.351045,-0.551848 0.435751,-0.574914 0.410146,-0.5352 0.334127,-0.568365 0.448613,-0.593219 0.371479,-0.600454 0.346422,-0.491515 0.492504,-0.6235 0.35518,-0.499529 0.497746,-0.482466 0.36795,-0.616478 0.378884,-0.494497 0.24502,0.595221 0.326312,0.641318 0.350508,0.680323 0.302489,0.582871 0.423828,0.452676 0.292855,0.664388 0.242081,0.61397 0.443424,0.64722 0.150847,0.571634 0.399272,0.691908 0.282507,0.567179 0.268565,0.616235 0.421673,0.559616 0.266359,0.591632 0.327909,0.611041 0.252696,0.634189 0.292389,0.618155 0.240107,0.635694 0.230994,0.662778 0.269376,0.565087 0.201311,0.667888 0.339368,0.709777 0.310968,0.586455 0.321745,0.65278 0.13397,0.463304 0.231642,0.677809 0.291255,0.674093 0.478634,0.628625 z M 7.2747604,14.126895 l 0.7091518,-0.04952 0.6449398,0.03148 0.7047748,0.03371 0.6491986,-0.05188 0.6344646,-0.02465 0.751434,-0.02949 0.588995,-0.02109 0.664172,0.0034 0.758528,0.01927 0.735893,0.04285 0.715098,-0.03303 0.529171,-0.0029 0.736768,-0.03144 0.722834,-0.01921 0.558725,0.07401 0.636891,0.04568 0.787625,-0.01752 0.769141,-0.04892 0.622122,-0.03842 0.612055,-0.02109 0.775551,-0.08317 0.768329,-0.139305 0.520846,0.0098 0.725456,-0.0054 0.664785,-0.114641 m -2.494466,31.010552 -0.607698,-0.475251 -0.500631,-0.362903 -0.534942,-0.366295 -0.483705,-0.44042 -0.724986,-0.353777 -0.527439,-0.504759 -0.543955,-0.388221 -0.56493,-0.387684 -0.568564,-0.376108 -0.790616,-0.311079 -0.490464,-0.4213 -0.468908,-0.397166 -0.749878,-0.380883 -0.671811,-0.420695 -0.370002,-0.321982 -0.6138,-0.394416 -0.54662,-0.375104 -0.582227,-0.40673 -0.575138,-0.396296 -0.52893,-0.370027 L 9.7100529,36.386594 9.139399,35.983198 8.5819378,35.57676 7.9319765,35.163551 7.2881743,34.829439 6.7572442,34.456078 6.224756,34.002337 5.7069615,33.591294 l 0.1263786,-0.80838 0.029943,-0.573684 0.06742,-0.710496 0.035757,-0.737801 0.1244302,-0.738125 0.177511,-0.547744 -0.014067,-0.660836 0.00614,-0.766713 0.018069,-0.759625 0.1877308,-0.613122 -0.016663,-0.579116 0.034358,-0.827631 -0.00257,-0.665787 0.050065,-0.755039 0.070832,-0.648874 0.056184,-0.777723 0.081926,-0.649008 0.1326898,-0.768625 0.012881,-0.588587 0.071704,-0.709184 0.032558,-0.710485 0.1638408,-0.591146 -0.096105,-0.836342 -0.063408,-0.801071 0.077619,-0.563499 0.054157,-0.609132 0.2104806,-0.863806 -0.046828,-0.601153 0.667814,-0.267227 0.5701891,-0.253335 0.6712346,-0.30943 0.5807638,-0.2597 0.7153348,-0.347958 0.630879,-0.303824 0.593262,-0.287314 0.695082,-0.203424 0.575849,-0.322025 0.512185,-0.315764 0.770542,-0.32754 0.670516,-0.262357 0.580733,-0.237797 0.547094,-0.260708 0.634673,-0.4188457 0.730354,-0.3857965 0.582337,-0.2803912 0.684601,-0.314714 0.647775,-0.3126934 0.483745,-0.2680945 0.743003,-0.2527766 0.540785,-0.2911014 0.677184,-0.338299 0.757614,-0.2448555 0.537555,-0.2891497 0.594358,-0.3293118 0.594022,-0.3964304 0.71648,-0.3551963 0.705357,0.3574415 0.535989,0.3216603 0.456515,0.5441609 0.546226,0.4303265 0.522102,0.3644926 0.468202,0.4442008 0.610689,0.3616847 0.609233,0.4625431 0.600332,0.5202279 0.484517,0.3187349 0.517842,0.4321098 0.625164,0.446409 0.698006,0.46698 0.536387,0.287022 0.465539,0.307169 0.799237,0.360718 0.51637,0.360196 0.639066,0.389921 0.524569,0.370341 0.508853,0.442102 0.531153,0.305958 0.741283,0.442943 0.516416,0.373591 0.687598,0.314574 0.524911,0.464304 0.603826,0.410212 0.468752,0.394131 0.489064,0.430311 -0.004,0.632292 -0.05202,0.745352 -0.09232,0.692922 -0.05444,0.712243 -0.07706,0.668219 -0.05458,0.721965 -0.05152,0.739537 -0.112186,0.776149 0.136097,0.428844 -0.02045,0.842325 -0.04167,0.729786 -0.01043,0.610699 -0.10307,0.768043 -0.06971,0.684337 0.07913,0.57314 0.003,0.747112 -0.112577,0.757011 -0.08912,0.724252 -0.08922,0.693811 -0.128891,0.661188 0.05773,0.678243 -0.09309,0.753214 -0.08615,0.612714 -0.204415,0.71869 -0.183419,0.634927 -0.09221,0.86414 0.02345,0.668149 -0.04454,0.680634 -0.689632,0.413444 -0.538339,0.256807 -0.609714,0.287415 -0.604398,0.294599 -0.67784,0.310183 -0.656248,0.317474 -0.594168,0.270984 -0.654835,0.259828 -0.597935,0.295759 -0.775511,0.436908 -0.544913,0.166056 -0.585307,0.272092 -0.526203,0.361219 -0.778639,0.315215 -0.439567,0.320048 -0.741585,0.283723 -0.653628,0.25912 -0.617872,0.26848 -0.511028,0.174352 -0.691773,0.376912 -0.793949,0.37858 -0.506754,0.274889 -0.556965,0.230342 -0.670396,0.329603 -0.588533,0.298768 -0.732426,0.285949 -0.590621,0.270886 z"
       inkscape:path-effect="#path-effect4151"
       inkscape:original-d="M 39.417764,36.300869 32.79838,31.721536 40.983628,16.839046 M 21.780402,44.675707 32.79838,31.721537 M 21.780402,44.675707 12.975284,30.126608 m -7.2663846,3.46211 7.2663846,-3.46211 M 7.2747604,14.126895 12.975284,30.126608 M 40.983628,16.839046 24.268081,13.756767 m 0.644043,-8.0047079 -0.644043,8.0047079 m 8.5303,17.96477 L 12.975285,30.126608 24.268081,13.756767 Z M 7.2747604,14.126895 24.268081,13.756767 M 21.780402,44.675707 5.7088994,33.588718 7.2747604,14.126895 24.912124,5.7520591 40.983628,16.839046 39.417764,36.300869 Z" />
    <path
       id="path1548-9"
       style="fill:none;stroke:#643f27;stroke-width:0.799174;stroke-linecap:butt;stroke-linejoin:miter;stroke-miterlimit:4;stroke-dasharray:none;stroke-opacity:1"
       d="m 111.2844,25.192746 -0.6849,-0.57482 -0.82425,-0.518459 -0.71345,-0.384626 -0.71545,-0.495654 -0.732,-0.508888 -0.79627,-0.554205 -0.73027,-0.398542 -0.64615,-0.504333 -0.78477,-0.569901 -0.73684,-0.536435 -0.71115,-0.509762 -0.69861,-0.53229 0.45473,-0.733718 0.41125,-0.909042 0.45115,-0.747455 0.40525,-0.789918 0.42896,-0.78321 0.4336,-0.791642 0.49842,-0.790061 0.42433,-0.800983 0.41061,-0.768778 0.42746,-0.797638 0.45064,-0.782236 0.43143,-0.7908522 0.43264,-0.7838168 0.41207,-0.8512103 0.44266,-0.7263389 0.44836,-0.8655778 0.37301,-0.7841796 0.43251,-0.7728323 0.42886,-0.8382319 0.36984,-0.7328101 0.44616,-0.7949748 0.45193,-0.8244468 0.42896,-0.76967376 0.46857,-0.81013492 0.42457,-0.71107098 M 87.888691,36.325225 l 0.585851,-0.683419 0.572084,-0.705044 0.5226,-0.68567 0.580134,-0.759192 0.602038,-0.665523 0.511384,-0.599023 0.734347,-0.695638 0.554174,-0.797675 0.535922,-0.67846 0.579289,-0.680068 0.583693,-0.7049 0.581195,-0.674249 0.589298,-0.697015 0.573958,-0.685298 0.646927,-0.693813 0.524203,-0.657479 0.596202,-0.618459 0.630912,-0.732135 0.524399,-0.736973 0.634218,-0.718758 0.504881,-0.622381 0.64293,-0.709438 0.56767,-0.664689 0.63284,-0.68172 0.56267,-0.604851 m -14.573819,17.15187 -0.401467,-0.742842 -0.475646,-0.802834 -0.398258,-0.868625 -0.384801,-0.698447 -0.61556,-0.879597 -0.456523,-0.641668 -0.439939,-0.85377 -0.471076,-0.767747 -0.421295,-0.756408 -0.39844,-0.7583 -0.521362,-0.872753 -0.447452,-0.759147 -0.462295,-0.759607 -0.506942,-0.810577 -0.460668,-0.814742 -0.408511,-0.725391 -0.445369,-0.780698 -0.497807,-0.758631 -0.46353,-0.813642 -0.592163,-0.768472 -0.41283,-0.730724 -0.531412,-0.672721 -0.479347,-0.797704 -0.508921,-0.748817 -0.520133,-0.749362 m -9.59686,4.595548 0.76496,-0.29549 0.867213,-0.44105 0.892917,-0.347852 0.729707,-0.323762 0.815377,-0.379464 0.792715,-0.417098 0.893274,-0.439495 0.711988,-0.364833 0.855158,-0.431838 0.72815,-0.367417 0.781893,-0.485629 0.803843,-0.310543 m -7.560104,-21.2656821 0.247614,0.8445989 0.275267,0.8584101 0.340926,0.8541397 0.367586,0.83594194 0.321556,0.83618238 0.256668,0.9049874 0.2838,0.82297498 0.296916,0.8534732 0.225178,0.8563635 0.339385,0.8764205 0.27254,0.8629815 0.377532,0.7825875 0.250309,0.8091309 0.324711,0.900427 0.258388,0.9198026 0.351963,0.8638992 0.299799,0.8216818 0.304017,0.831526 0.309168,0.843209 0.284498,0.905259 0.310874,0.79593 0.331583,0.839497 0.342255,0.887139 0.330593,0.842859 0.340438,0.752831 m 37.070741,-17.59705395 -0.95609,-0.11940033 -0.84759,-0.17532496 -0.78547,-0.15145606 -1.01513,-0.2182695 -0.7758,-0.086847 -0.98577,-0.1412666 -0.87101,-0.1478487 -0.94402,-0.2279768 -0.78985,-0.1201122 -0.91018,-0.1868852 -0.87779,-0.1927048 -0.87057,-0.1592302 -0.8449,-0.1064056 -0.97104,-0.1506308 -0.9158,-0.2128467 -0.776397,-0.1719072 -0.938899,-0.1455489 -0.886888,-0.1843165 -0.938572,-0.083187 -0.819572,-0.1965375 -0.919054,-0.1896289 -0.883373,-0.1800728 -0.871736,-0.1851817 -0.897763,-0.1907383 -0.821629,-0.1216819 m 0.796288,-10.6916704 -0.06854,0.884262 -0.07206,0.910975 -0.06093,0.872704 -0.07025,0.877216 -1.17e-4,0.826861 -0.120233,0.937681 -0.05191,0.8714472 -0.07431,0.8817044 -0.09032,0.8981313 -0.07243,0.9221613 -0.125541,0.881264 -0.05792,0.8798851 m 11.355837,23.8174487 -0.8769,0.03336 -0.87478,-0.056 -1.025829,-0.05083 -0.8905,-0.06781 -0.878901,-0.07093 -0.972337,-0.0644 -0.939878,-0.07962 -0.815624,-0.07894 -0.905644,-0.06766 -0.908504,-0.08747 -0.921217,-0.07786 -0.941633,-0.0817 -0.874601,-0.08106 -0.879597,-0.110355 -0.892519,-0.07699 -0.938825,-0.07725 -0.919797,-0.05222 -0.979336,-0.0012 -0.822229,-0.111101 -0.909938,-0.08235 -0.821738,-0.006 -0.995092,-0.09945 -0.930665,-0.05818 -0.907361,-0.07302 -0.901597,-0.07755 -0.808108,-0.153702 -1.006322,-0.0876 -0.902577,-0.03202 -0.917109,-0.108394 0.422238,-0.679031 0.607696,-0.840384 0.438797,-0.780801 0.515401,-0.720577 0.540451,-0.784674 0.519972,-0.813522 0.550108,-0.638698 0.58737,-0.788868 0.531521,-0.68158 0.513129,-0.7578366 0.559608,-0.7202608 0.511231,-0.7458176 0.542131,-0.694436 0.535032,-0.8176887 0.455158,-0.7712259 0.524345,-0.7630154 0.423326,-0.8238148 0.487786,-0.7329376 0.541711,-0.7557151 0.528257,-0.7325422 0.487206,-0.7548482 0.548637,-0.76668429 0.506676,-0.77757751 0.490155,-0.6992954 0.575864,-0.7897658 0.497553,-0.7096233 0.578191,-0.6932619 0.508674,-0.7871025 0.510751,-0.7000286 0.363164,0.806779 0.408919,0.8360145 0.421677,0.8662049 0.391554,0.8012412 0.459573,0.7109925 0.395233,0.86096143 0.361112,0.81891439 0.47252,0.84029748 0.309915,0.7964747 0.447828,0.8686179 0.380777,0.7915506 0.374901,0.822053 0.459236,0.7818099 0.375975,0.8079996 0.409834,0.8164034 0.36844,0.8333487 0.389535,0.8209921 0.361042,0.8337569 0.355692,0.851481 0.375509,0.784319 0.34175,0.855139 0.4155,0.881988 0.396037,0.80221 0.40364,0.8475 0.29832,0.717272 0.3618,0.858838 0.39069,0.857269 0.49146,0.82896 z m -33.886975,-23.3292641 0.917835,-0.043546 0.882406,0.012085 0.915572,0.013692 0.884956,-0.045249 0.876689,-0.026403 0.941068,-0.029596 0.851712,-0.024045 0.893076,-0.00701 0.945049,0.00401 0.932615,0.019978 0.921109,-0.032511 0.81883,-0.011987 0.933023,-0.0306 0.925362,-0.022624 0.835084,0.041178 0.877853,0.022996 0.960616,-0.019452 0.950677,-0.042867 0.870026,-0.03725 0.864542,-0.024298 0.954374,-0.06586 0.950754,-0.1063159 0.814263,-0.00295 0.926926,-0.014017 0.89345,-0.089057 M 87.881453,36.318504 87.101531,35.737649 86.385993,35.231268 85.647047,34.725517 84.933728,34.170649 84.091008,33.68092 83.349285,33.074667 82.611803,32.556221 81.856118,32.035751 81.09736,31.523364 80.215345,31.055956 79.493749,30.499698 78.795202,29.97247 77.938823,29.460594 77.121408,28.908434 76.477194,28.422296 75.695081,27.900847 74.947383,27.38851 74.179879,26.856974 73.417016,26.332072 72.679411,25.825039 71.89463,25.280628 71.134466,24.750568 70.381749,24.218427 69.578327,23.68223 68.778672,23.195988 68.040643,22.682136 67.301476,22.119799 66.569018,21.589318 66.68195,20.58748 l 0.0586,-0.841157 0.0806,-0.934397 0.06302,-0.9534 0.111328,-0.953379 0.13997,-0.823191 0.0364,-0.900495 0.04793,-0.973115 0.05353,-0.968148 0.146109,-0.867411 0.03467,-0.844356 0.06424,-1.014975 0.04209,-0.9037198 0.07138,-0.9648743 0.08212,-0.8921205 0.0746,-0.9808412 0.08777,-0.8922787 0.116255,-0.9745883 0.04916,-0.8504968 0.0833,-0.9337418 0.06151,-0.9342891 0.133505,-0.8525525 -0.0075,-1.01855645 0.0079,-0.99929382 0.08534,-0.83215713 0.07314,-0.8656314 0.159305,-1.0400846 0.01739,-0.859691 0.85641,-0.375675 0.804343,-0.3681036 0.860199,-0.4025337 0.809125,-0.3702703 0.884766,-0.4282041 0.835054,-0.4022115 0.814457,-0.3910263 0.871282,-0.3314818 0.810386,-0.4162708 0.769592,-0.4068816 0.912851,-0.4100841 0.858867,-0.3742038 0.809546,-0.3585454 0.792011,-0.3702512 0.840974,-0.4739264 0.887701,-0.452907 0.806019,-0.387932 0.864793,-0.409634 0.843883,-0.41103 0.752735,-0.380751 0.897397,-0.362767 0.789086,-0.395323 0.861491,-0.421628 0.904753,-0.360899 0.784212,-0.396982 0.814988,-0.416988 0.814958,-0.462592 0.881551,-0.435465 0.833635,0.499861 0.742643,0.483639 0.698341,0.630135 0.737146,0.543762 0.730851,0.50316 0.705337,0.556395 0.780388,0.493523 0.786965,0.569148 0.775064,0.609276 0.705297,0.473039 0.733141,0.5494488 0.78834,0.5553655 0.82887,0.5747933 0.73718,0.458325 0.70465,0.4704424 0.889,0.4986638 0.73543,0.5117351 0.79682,0.522715 0.73426,0.5132653 0.72531,0.5580017 0.73522,0.4610447 0.85926,0.55555 0.72967,0.5163718 0.82308,0.4703017 0.73575,0.5778498 0.77428,0.5362893 0.70101,0.5261218 0.7156,0.545219 -0.0456,0.88077729 -0.0727,0.95798201 -0.0944,0.9223774 -0.0736,0.9361511 -0.0858,0.905471 -0.0737,0.9426435 -0.0717,0.954499 -0.1046,0.9796684 0.033,0.7414108 -0.0559,1.02321 -0.0663,0.9469351 -0.049,0.8655824 -0.10044,0.973175 -0.0817,0.917495 10e-5,0.840427 -0.0419,0.95623 -0.10509,0.963913 -0.0926,0.945711 -0.0925,0.923993 -0.11429,0.901682 -0.0119,0.914682 -0.094,0.959662 -0.0908,0.868306 -0.15581,0.941656 -0.14477,0.886594 -0.0954,1.039388 -0.0281,0.903697 -0.0687,0.916788 -0.86841,0.476199 -0.77924,0.371433 -0.82437,0.389644 -0.82201,0.393702 -0.86243,0.403245 -0.8503,0.41095 -0.81471,0.380092 -0.84975,0.370841 -0.81997,0.396711 -0.91556,0.491198 -0.78231,0.312115 -0.81433,0.382361 -0.77918,0.4395 -0.914366,0.402837 -0.731935,0.415746 -0.894091,0.38054 -0.851677,0.371406 -0.831069,0.377752 -0.771586,0.311517 -0.875863,0.444643 -0.925173,0.448737 -0.765279,0.386098 -0.79429,0.349364 -0.86093,0.415522 -0.812765,0.396433 -0.891803,0.387391 -0.814673,0.381581 z"
       inkscape:original-d="m 111.2844,25.192746 -8.78053,-6.087202 10.85761,-19.78295095 M 87.888691,36.325225 102.50387,19.105545 M 87.888691,36.325225 76.20883,16.985443 m -9.638746,4.602104 9.638746,-4.602104 M 68.647175,-4.2826061 76.20883,16.985443 M 113.36148,-0.67740695 91.188547,-4.7746092 M 92.042875,-15.415083 91.188547,-4.7746092 M 102.50388,19.105545 76.20883,16.985443 91.188547,-4.7746092 Z M 68.647175,-4.2826061 91.188547,-4.7746092 M 87.888691,36.325225 66.570084,21.587547 68.647175,-4.2826061 92.042875,-15.415083 113.36148,-0.67740695 111.2844,25.192746 Z"
       inkscape:path-effect="#path-effect4301" />
    <path
       id="path1548-9-0"
       style="fill:none;stroke:#643f27;stroke-width:0.8;stroke-linecap:butt;stroke-linejoin:miter;stroke-miterlimit:4;stroke-dasharray:none;stroke-opacity:1"
       d="M 10.042321,66.438194 9.7626932,66.135242 9.3302371,65.893247 9.0203522,65.79776 8.7072255,65.581083 8.3762709,65.349898 7.9752024,65.069306 7.6455491,64.959285 7.4048234,64.730046 7.0197027,64.432533 6.6834154,64.172513 6.374966,63.941982 6.0809952,63.686326 6.299556,63.391529 l 0.1710842,-0.486265 0.2145355,-0.30974 0.1645837,-0.356045 0.1904613,-0.348805 0.1955277,-0.357983 0.2662407,-0.356257 0.1855506,-0.368216 0.1704701,-0.332942 0.1887975,-0.364496 0.2140875,-0.347709 0.1931851,-0.357182 0.1944612,-0.349443 0.1720235,-0.422999 0.2052973,-0.286793 0.2115603,-0.438626 0.1293639,-0.349846 0.1944907,-0.338097 0.1903221,-0.40871 0.1258534,-0.294977 0.2112527,-0.36214 0.216262,-0.393175 0.190401,-0.33482 0.233913,-0.377747 0.182803,-0.267986 m -11.44337231,16.688949 0.265568,-0.305439 0.25054945,-0.329031 0.19657722,-0.307907 0.25963903,-0.388172 0.28359968,-0.286467 0.18405533,-0.213086 0.4281121,-0.318267 0.2306818,-0.42981 0.2110156,-0.300472 0.25863,-0.30225 0.263198,-0.328915 0.2605619,-0.295784 0.2692665,-0.320216 0.252588,-0.307674 0.3323821,-0.316972 0.1973678,-0.276685 0.277551,-0.234861 L 4.2043786,65.849939 4.402849,65.486103 4.7227921,65.140502 4.89882,64.901146 5.2288148,64.567815 5.473413,64.283498 5.7905479,63.980303 6.0288669,63.76108 m -6.56015521,7.708399 -0.13944453,-0.316077 -0.22056389,-0.381531 -0.13605477,-0.45329 -0.1219966,-0.269128 -0.3745949,-0.465274 -0.1980166,-0.204775 -0.1811295,-0.436307 -0.2157983,-0.344211 -0.1609347,-0.330884 -0.1369448,-0.333425 -0.2725912,-0.458495 -0.1891917,-0.334832 -0.2059629,-0.335195 -0.254692,-0.39011 -0.2027418,-0.395058 -0.1463307,-0.300515 -0.1890524,-0.359414 -0.2469691,-0.335556 -0.2062733,-0.391505 -0.3493143,-0.348655 -0.1432164,-0.29722 -0.2836895,-0.242599 -0.2213946,-0.367042 -0.2582163,-0.322005 -0.2692492,-0.320292 m -4.3105057,2.072753 0.3212686,-0.0773 0.4330247,-0.236915 0.4606257,-0.134177 0.2851623,-0.1077 0.3770266,-0.169994 0.3521588,-0.210723 0.4598725,-0.233792 0.2648763,-0.150454 0.4186511,-0.225968 0.2810864,-0.154574 0.3383887,-0.285839 0.3623661,-0.09505 m -3.4157681,-9.609438 0.076859,0.377801 0.1071606,0.392997 0.1788765,0.388405 0.2076586,0.368075 0.1574795,0.368541 0.086736,0.443821 0.1162412,0.354076 0.1306578,0.387508 0.0524,0.390664 0.1775691,0.41335 0.1037961,0.397491 0.2186951,0.310894 0.079385,0.337834 0.1615678,0.438805 0.088719,0.459771 0.190882,0.400509 0.1328034,0.352012 0.1381432,0.363536 0.1439851,0.376177 0.1171238,0.443826 0.1455302,0.326351 0.1685005,0.371244 0.1801336,0.423356 0.1675588,0.37559 0.1783519,0.277609 m 16.7016538,-7.910886 -0.476299,-0.02554 -0.358197,-0.08636 -0.2900609,-0.06043 -0.5406513,-0.133583 -0.2795408,0.01 L 8.5274219,54.400609 8.1433511,54.344159 7.6799318,54.200194 7.3856644,54.174438 6.9591313,54.074953 6.5684871,53.969478 6.1858013,53.900518 5.8307942,53.889049 5.3375997,53.828505 4.9043589,53.701009 4.6249825,53.618929 4.1679887,53.564534 3.7666217,53.467924 3.3098191,53.481943 2.978283,53.37207 2.5448121,53.269509 2.148367,53.17811 1.7645295,53.081111 1.3526068,52.977975 1.0233877,52.950404 m 0.322794,-4.864775 -0.029279,0.398078 -0.033127,0.427219 -0.020962,0.38547 -0.031138,0.390418 0.045352,0.33546 -0.086917,0.457452 -0.010961,0.383129 -0.035829,0.395694 -0.053249,0.413177 -0.03324,0.439072 -0.0907068,0.394995 -0.0172174,0.392926 M 6.107009,63.622864 5.7297555,63.705975 5.3547277,63.691429 4.8149446,63.682365 4.4225461,63.6552 4.0430415,63.624559 3.5616691,63.600876 3.115456,63.56103 2.8050109,63.522196 2.3965801,63.494974 1.9847561,63.4461 l -0.4254137,-0.03832 -0.4478517,-0.04241 -0.37472053,-0.04148 -0.38008512,-0.07366 -0.39396367,-0.03731 -0.44478391,-0.03764 -0.4240463,-0.01026 -0.48915707,0.04544 -0.3194641,-0.07346 -0.4121297,-0.0432 -0.3169373,0.04006 -0.5079049,-0.06416 -0.4354341,-0.01659 -0.4117643,-0.03241 -0.4048494,-0.0373 -0.3026119,-0.120621 -0.5143299,-0.04933 -0.4052361,0.01214 -0.4209448,-0.0716 0.1305719,-0.261318 0.3332323,-0.437238 0.1485605,-0.372286 0.2326095,-0.307118 0.2595985,-0.376311 0.2371631,-0.408083 0.2699354,-0.21804 0.3102063,-0.380329 0.2497582,-0.264047 0.2298868,-0.347497 0.2804205,-0.306238 0.228088,-0.334755 0.2613408,-0.278152 0.2538993,-0.414008 0.166538,-0.361243 0.2413187,-0.351841 0.131919,-0.419184 0.20179,-0.320113 0.2610799,-0.345169 0.2459895,-0.319559 0.20130525,-0.343856 0.26881162,-0.357234 0.22238577,-0.368719 0.20461134,-0.28427 0.29848915,-0.381738 0.21209484,-0.294468 0.30083752,-0.276619 0.22529936,-0.380333 0.22693432,-0.28268 0.14686533,0.353966 0.1968156,0.385866 0.2106915,0.418779 0.1778374,0.347921 0.2520677,0.249472 0.1820065,0.414138 0.144594,0.367059 0.2659705,0.390264 0.089766,0.343712 0.238628,0.420424 0.1668678,0.337735 0.1599476,0.370715 0.2516963,0.326465 0.1619983,0.357698 0.1975211,0.364541 0.1529107,0.384152 0.1751963,0.368777 0.1445559,0.383772 0.1381521,0.401734 0.159872,0.328027 0.1230395,0.407247 0.2031182,0.434563 0.1833515,0.348764 0.1917549,0.398705 0.077387,0.256184 0.1436241,0.410153 0.1765384,0.408687 0.2867509,0.37831 z m -15.3344273,-10.505952 0.425151,-0.03493 0.3865374,0.02573 0.4226483,0.02751 0.3894078,-0.03676 0.380154,-0.01623 0.4504819,-0.01973 0.3530116,-0.01365 0.3981442,0.0049 0.4548385,0.01692 0.4413651,0.03435 0.4291757,-0.02273 0.3170104,-2.19e-4 0.441814,-0.02116 0.4332408,-0.01217 0.334879,0.05761 0.3829654,0.03666 0.4735981,-0.01068 0.4614752,-0.0345 0.372411,-0.02683 0.366428,-0.01367 0.46496782,-0.0601 0.45935459,-0.102395 0.31120264,0.0092 0.43487051,-0.0018 0.39853375,-0.0838 M -0.53918382,71.462147 -0.9035158,71.164802 -1.1976058,70.94856 -1.517269,70.733105 -1.808965,70.464176 -2.2423377,70.266228 -2.5645474,69.941474 -2.8829675,69.71171 -3.2209487,69.48014 -3.562217,69.257508 l -0.4756632,-0.173435 -0.3003143,-0.270084 -0.2754771,-0.238878 -0.4479892,-0.222183 -0.4050401,-0.265844 -0.2164793,-0.193816 -0.3666606,-0.232546 -0.3291491,-0.222623 -0.3507587,-0.243591 -0.3456957,-0.236341 -0.3181476,-0.216851 -0.3695779,-0.257684 -0.3427539,-0.24196 -0.334624,-0.244223 -0.3899438,-0.24865 -0.3859641,-0.194065 -0.3206792,-0.224499 -0.3197994,-0.277353 -0.3103868,-0.242113 0.0758,-0.502555 0.01669,-0.327315 0.04051,-0.428955 0.02136,-0.449733 0.074077,-0.449651 0.1055356,-0.30781 -0.0079,-0.39294 0.0045,-0.470722 0.01095,-0.465491 0.1120891,-0.355733 -0.00965,-0.33171 0.021995,-0.516415 -0.00148,-0.395329 0.030423,-0.461986 0.042269,-0.38283 0.03397,-0.479718 0.048548,-0.383001 0.079526,-0.472989 0.00706,-0.338176 0.043251,-0.4279 0.01963,-0.429146 0.098274,-0.339453 -0.057309,-0.523489 -0.038408,-0.496761 0.044787,-0.317833 0.033069,-0.353517 0.1275213,-0.544108 -0.028043,-0.347342 0.4003735,-0.155783 0.3436327,-0.147531 0.4045249,-0.185192 0.3488196,-0.149923 0.4313245,-0.213294 0.3770728,-0.184645 0.3546197,-0.172448 0.4165792,-0.107574 0.3511084,-0.200536 0.305207,-0.189728 0.4613647,-0.193439 0.4033671,-0.154244 0.3499186,-0.137188 0.3305907,-0.15047 0.3832567,-0.2641 0.4330527,-0.239525 0.3452404,-0.168648 0.4095722,-0.192662 0.3869337,-0.194016 0.2873943,-0.160887 0.4448972,-0.141655 0.32805279,-0.17754 0.40536012,-0.206073 0.45303647,-0.139445 0.32550038,-0.179217 0.35408927,-0.200737 0.35361614,-0.250482 0.42625453,-0.220219 0.4229274,0.208989 0.3242441,0.1913 0.2756454,0.351285 0.3169423,0.256365 0.3108332,0.212629 0.2829523,0.270671 0.3653202,0.202112 0.3717776,0.284336 0.3591816,0.328419 0.283482,0.180538 0.3132723,0.262749 0.3744661,0.26958 0.4180143,0.290883 0.3172626,0.164728 0.2812094,0.176445 0.4833942,0.207064 0.3150364,0.221355 0.3827504,0.233945 0.3146901,0.223568 0.3047112,0.272447 0.3155256,0.166657 0.4506361,0.270081 0.3101913,0.227016 0.4112391,0.176754 0.319886,0.296583 0.356013,0.246436 0.279051,0.237367 0.291231,0.258447 -0.0024,0.370489 -0.0319,0.454704 -0.05553,0.415877 -0.03283,0.430892 -0.04618,0.397427 -0.03299,0.438009 -0.03084,0.45091 -0.06677,0.478356 0.08299,0.218547 -0.01394,0.525902 -0.025,0.442948 -0.0059,0.354087 -0.0626,0.471635 -0.04165,0.410194 0.04757,0.326375 1.69e-4,0.45428 -0.06856,0.462487 -0.05358,0.440441 -0.05308,0.417263 -0.07686,0.392866 0.03472,0.406391 -0.05588,0.45883 -0.05102,0.356509 -0.123074,0.436051 -0.109636,0.375074 -0.05451,0.54518 0.01485,0.396917 -0.02546,0.40687 -0.4134646,0.265446 -0.3162924,0.151485 -0.365423,0.171033 -0.3628551,0.175405 -0.4070126,0.18578 -0.3936637,0.194271 -0.3548835,0.160743 -0.3930644,0.150489 -0.3604531,0.178653 -0.4649437,0.281788 -0.3196771,0.08739 -0.3539764,0.162855 -0.3161361,0.225339 -0.4644081,0.185375 -0.2641175,0.199544 -0.4429281,0.160988 -0.3944051,0.150791 -0.3722918,0.157897 -0.3077056,0.0857 -0.421406,0.231201 -0.4753913,0.235371 -0.3009165,0.167331 -0.3328554,0.1271 -0.4051635,0.19894 -0.3528646,0.178302 -0.43924777,0.168274 -0.3546616,0.162321 z"
       inkscape:path-effect="#path-effect4334"
       inkscape:original-d="M 10.042321,66.438194 6.0739914,63.687104 10.981051,54.746269 M -0.53128831,71.469479 6.0739914,63.687105 m -6.60527971,7.782374 -5.27866999,-8.740547 m -4.3561997,2.079905 4.3561997,-2.079905 m -3.41746,-9.61202 3.41746,9.61202 M 10.981051,54.746269 0.96007165,52.894553 M 1.3461817,48.085629 0.96007165,52.894553 M 6.0739914,63.687105 -5.8099583,62.728932 0.96007165,52.894553 Z M -9.2274183,53.116912 0.96007165,52.894553 m -1.49135996,18.574926 -9.63486969,-6.660642 0.9387397,-11.691925 10.5736,-5.031283 9.6348693,6.66064 -0.93873,11.691925 z" />
    <path
       id="path1548-9-0-1"
       style="fill:none;stroke:#643f27;stroke-width:0.8;stroke-linecap:butt;stroke-linejoin:miter;stroke-miterlimit:4;stroke-dasharray:none;stroke-opacity:1"
       d="m 70.278718,57.310163 -0.378474,-0.38057 -0.543776,-0.314365 -0.411539,-0.155806 -0.414711,-0.287079 -0.434097,-0.302772 -0.510053,-0.356306 -0.432494,-0.171761 -0.33528,-0.299657 -0.493869,-0.374751 -0.439849,-0.334393 -0.40962,-0.302569 -0.394204,-0.329623 0.281614,-0.401062 0.230195,-0.608419 0.277294,-0.417262 0.223139,-0.467434 0.251168,-0.459564 0.256657,-0.469515 0.333261,-0.467645 0.245807,-0.480586 0.229502,-0.442418 0.249376,-0.476579 0.27677,-0.458389 0.25411,-0.468626 0.255507,-0.460264 0.231202,-0.539938 0.267276,-0.392376 0.274045,-0.556882 0.185001,-0.460697 0.255483,-0.447766 0.251027,-0.5245 0.181207,-0.400875 0.273038,-0.473869 0.278893,-0.507843 0.251108,-0.444167 0.298171,-0.491076 0.243803,-0.372646 m -15.026877,21.89996 0.348055,-0.402005 0.331786,-0.427562 0.273312,-0.404674 0.341533,-0.49161 0.367469,-0.381275 0.259839,-0.302046 0.523971,-0.416065 0.310365,-0.536825 0.288985,-0.396483 0.340467,-0.3984 0.345493,-0.427423 0.342608,-0.391433 0.352082,-0.418031 0.333994,-0.404367 0.420377,-0.414436 0.274478,-0.370998 0.360813,-0.325455 0.401007,-0.458778 0.275385,-0.465276 0.406435,-0.445006 0.251438,-0.330238 0.417169,-0.432404 0.325704,-0.379334 0.40383,-0.39971 0.319156,-0.308745 m -8.615751,10.128579 -0.1993,-0.422285 -0.287115,-0.49319 -0.195591,-0.570934 -0.180158,-0.370949 -0.453536,-0.583918 -0.263231,-0.302002 -0.244551,-0.552784 -0.28188,-0.452455 -0.222625,-0.438323 -0.196333,-0.440926 -0.34279,-0.576363 -0.25332,-0.442288 -0.271303,-0.442731 -0.324091,-0.502444 -0.268277,-0.507658 -0.20698,-0.40428 -0.252461,-0.468589 -0.314966,-0.44269 -0.271998,-0.504578 -0.425963,-0.456095 -0.206259,-0.403535 -0.354666,-0.341704 -0.289197,-0.480442 -0.327474,-0.428905 -0.339861,-0.427808 m -5.664849,2.720617 0.430969,-0.123342 0.551973,-0.29599 0.582013,-0.185033 0.391091,-0.156405 0.491136,-0.2234 0.464244,-0.26763 0.581563,-0.293075 0.369382,-0.203387 0.5368,-0.284426 0.387417,-0.207456 0.449981,-0.348891 0.475949,-0.142127 m -4.481103,-12.606004 0.114492,0.497116 0.147275,0.513536 0.224939,0.508541 0.256217,0.486669 0.201844,0.487109 0.125192,0.568592 0.157186,0.471457 0.172769,0.507623 0.08799,0.511042 0.223401,0.53536 0.143756,0.518563 0.26811,0.424394 0.117363,0.454228 0.206067,0.563172 0.127307,0.585939 0.23795,0.521187 0.175417,0.469426 0.180963,0.481661 0.187219,0.495392 0.158104,0.568691 0.188985,0.440838 0.213763,0.490336 0.226367,0.546746 0.212696,0.494824 0.224367,0.3886 m 21.929213,-10.393693 -0.607558,-0.04458 -0.479532,-0.110535 -0.405834,-0.08241 -0.677295,-0.161574 -0.394428,-0.0061 -0.642791,-0.0707 -0.507457,-0.07811 -0.593511,-0.172887 -0.410575,-0.045 -0.553546,-0.12459 -0.514844,-0.131195 -0.506245,-0.09164 -0.476159,-0.02931 -0.625677,-0.08221 -0.560625,-0.155032 -0.394511,-0.106079 -0.586824,-0.07574 -0.526204,-0.121498 -0.586562,-0.0017 -0.449393,-0.135855 -0.561952,-0.127916 -0.521217,-0.116044 -0.507531,-0.122102 -0.538055,-0.128729 -0.448346,-0.04694 m 0.437897,-6.368728 -0.03907,0.522797 -0.04324,0.554367 -0.03006,0.509138 -0.04109,0.514491 0.04178,0.454961 -0.10111,0.586774 -0.01928,0.506909 -0.04608,0.520089 -0.06497,0.539167 -0.04345,0.567316 -0.105853,0.519394 -0.02615,0.517333 m 6.756172,14.083284 -0.502304,0.08249 -0.499864,-0.02325 -0.67836,-0.01726 -0.518612,-0.03701 -0.504721,-0.04075 -0.615099,-0.03316 -0.576928,-0.05081 -0.429914,-0.0498 -0.536139,-0.037 -0.539726,-0.06044 -0.554538,-0.04903 -0.578793,-0.0535 -0.499568,-0.05256 -0.505408,-0.08735 -0.520513,-0.04796 -0.575471,-0.0483 -0.552998,-0.01866 -0.623483,0.04167 -0.439094,-0.08746 -0.540466,-0.05432 -0.437008,0.0359 -0.643309,-0.07629 -0.565484,-0.02557 -0.539274,-0.04282 -0.53198,-0.04813 -0.421304,-0.138322 -0.652143,-0.06085 -0.532626,0.0055 -0.549692,-0.0851 0.194782,-0.360563 0.414222,-0.551175 0.214294,-0.480794 0.305192,-0.410027 0.33454,-0.48522 0.310266,-0.519543 0.3458,-0.313445 0.38955,-0.489752 0.323911,-0.363535 0.302322,-0.453856 0.357122,-0.409245 0.300286,-0.439931 0.336457,-0.378791 0.328302,-0.525518 0.233726,-0.469022 0.314963,-0.458983 0.196189,-0.531609 0.272029,-0.424261 0.33611,-0.451339 0.319895,-0.4237 0.271455,-0.450033 0.344429,-0.464379 0.294344,-0.476945 0.275005,-0.385152 0.376589,-0.491143 0.283307,-0.396544 0.379193,-0.377213 0.297281,-0.489143 0.299222,-0.384196 0.199388,0.468479 0.253489,0.503036 0.268536,0.538697 0.23294,0.461932 0.313348,0.355277 0.237409,0.533322 0.196938,0.482711 0.32848,0.507889 0.137213,0.457048 0.298989,0.540801 0.220802,0.450769 0.213471,0.486595 0.312945,0.438771 0.215418,0.471738 0.254349,0.479913 0.205851,0.500791 0.230218,0.484751 0.196887,0.500648 0.190126,0.520554 0.213621,0.440844 0.17373,0.526035 0.260596,0.556263 0.23871,0.462911 0.247779,0.516838 0.123703,0.362582 0.19645,0.52956 0.231655,0.527879 0.350952,0.494807 z m -20.107765,-13.796113 0.55367,-0.03987 0.511826,0.02585 0.55097,0.02777 0.514908,-0.04186 0.504958,-0.01962 0.581116,-0.0234 0.475521,-0.01683 0.524411,0.0033 0.585831,0.0163 0.571206,0.03518 0.557884,-0.02671 0.436559,-0.0024 0.571693,-0.02484 0.562473,-0.0152 0.455874,0.06034 0.507514,0.03801 0.605608,-0.01295 0.592869,-0.03931 0.496707,-0.03149 0.490239,-0.01693 0.596832,-0.06688 0.591255,-0.113288 0.430508,0.008 0.564272,-0.0043 0.524841,-0.09307 m -1.960738,24.440543 -0.473301,-0.376465 -0.397206,-0.288558 -0.424898,-0.287738 -0.394604,-0.345703 -0.547922,-0.268781 -0.427812,-0.406254 -0.423438,-0.303092 -0.444724,-0.305177 -0.448306,-0.295533 -0.593923,-0.242278 -0.404072,-0.34707 -0.377067,-0.313115 -0.563849,-0.295012 -0.517462,-0.342402 -0.313063,-0.264375 -0.475843,-0.306264 -0.435195,-0.295508 -0.458604,-0.318215 -0.453119,-0.310367 -0.423273,-0.28925 -0.479001,-0.333468 -0.449932,-0.316456 -0.441126,-0.318909 -0.501054,-0.323705 -0.4967,-0.2646 -0.425339,-0.297449 -0.425078,-0.354733 -0.415571,-0.316746 0.08978,-0.639824 0.02569,-0.449966 0.05155,-0.5601 0.03079,-0.582594 0.0879,-0.582525 0.121912,-0.428804 -8.28e-4,-0.520772 0.01266,-0.6055 0.01953,-0.599771 0.129058,-0.480824 -0.0028,-0.454435 0.0317,-0.654993 0.0061,-0.523723 0.04063,-0.595953 0.05342,-0.510132 0.04446,-0.615063 0.06019,-0.510318 0.09378,-0.607743 0.01504,-0.461512 0.05459,-0.559068 0.02895,-0.560208 0.114111,-0.46321 -0.05386,-0.661659 -0.03409,-0.6345 0.05649,-0.439561 0.04326,-0.478521 0.14543,-0.684901 -0.02285,-0.471726 0.520004,-0.209813 0.458515,-0.200871 0.524496,-0.241638 0.464144,-0.203453 0.553528,-0.272051 0.494762,-0.241108 0.470433,-0.227893 0.537566,-0.157587 0.466331,-0.258143 0.417053,-0.24662 0.586265,-0.250569 0.523146,-0.208125 0.465129,-0.189637 0.444257,-0.203863 0.501557,-0.326797 0.555869,-0.3007 0.460326,-0.223911 0.529951,-0.249819 0.505371,-0.251339 0.39757,-0.21548 0.568297,-0.194524 0.441298,-0.233276 0.525586,-0.264246 0.577078,-0.192184 0.437631,-0.235098 0.470219,-0.258559 0.469852,-0.31246 0.548533,-0.279887 0.536778,0.280745 0.429684,0.26158 0.377123,0.434841 0.422195,0.332238 0.415333,0.284675 0.385143,0.347566 0.474217,0.273285 0.481443,0.362447 0.467672,0.410107 0.385531,0.249664 0.417995,0.339095 0.483975,0.346376 0.531363,0.369417 0.422447,0.232454 0.383575,0.245633 0.602263,0.278861 0.420141,0.294331 0.493259,0.307774 0.419463,0.296554 0.408726,0.349482 0.42044,0.234883 0.566875,0.346818 0.414429,0.300268 0.524173,0.245821 0.423966,0.374781 0.464962,0.322076 0.380627,0.311559 0.395078,0.334376 -0.01022,0.496752 -0.04222,0.587989 -0.06782,0.545921 -0.04323,0.562191 -0.05769,0.525936 -0.04341,0.56989 -0.04107,0.583876 -0.07997,0.613613 0.08236,0.332119 -0.02266,0.665108 -0.03473,0.575158 -0.01407,0.478928 -0.07534,0.606218 -0.05282,0.539878 0.04385,0.448993 -0.007,0.587062 -0.08151,0.596014 -0.0657,0.572817 -0.06529,0.54754 -0.09106,0.521128 0.02987,0.535988 -0.06794,0.591743 -0.06313,0.481722 -0.140843,0.568055 -0.126719,0.502255 -0.06741,0.685463 0.009,0.524866 -0.03588,0.537162 -0.534186,0.328614 -0.428884,0.20505 -0.482138,0.22633 -0.479356,0.231086 -0.527174,0.242335 -0.51275,0.251507 -0.470722,0.21514 -0.512099,0.204085 -0.476811,0.234614 -0.589941,0.346326 -0.432534,0.135413 -0.469902,0.217546 -0.428743,0.285189 -0.589111,0.241885 -0.372544,0.257204 -0.565637,0.215491 -0.513798,0.20451 -0.489724,0.212152 -0.419656,0.133918 -0.542851,0.29146 -0.601271,0.29607 -0.412272,0.222264 -0.446778,0.178734 -0.525239,0.256668 -0.468503,0.23425 -0.562035,0.223438 -0.470538,0.216865 z"
       inkscape:path-effect="#path-effect4332"
       inkscape:original-d="M 70.278718,57.310163 65.073165,53.701354 71.51012,41.972997 M 56.408529,63.910073 65.073165,53.701355 M 56.408529,63.910073 49.484105,52.444449 m -5.714351,2.728365 5.714351,-2.728365 M 45.001169,39.835648 49.484105,52.444449 M 71.51012,41.972997 58.364856,39.543964 m 0.506489,-6.308223 -0.506489,6.308223 m 6.708309,14.157391 -15.58906,-1.256906 8.880751,-12.900485 z M 45.001169,39.835648 58.364856,39.543964 M 56.408529,63.910073 43.769754,55.172814 45.001169,39.835648 58.871345,33.235741 71.51012,41.972997 70.278718,57.310163 Z" />
    <path
       id="path1548-9-8"
       style="fill:none;stroke:#643f27;stroke-width:0.799174;stroke-linecap:butt;stroke-linejoin:miter;stroke-miterlimit:4;stroke-dasharray:none;stroke-opacity:1"
       d="m 111.2844,104.6036 -0.6849,-0.57482 -0.82425,-0.51846 -0.71345,-0.38463 -0.71545,-0.49565 -0.732,-0.50889 -0.79627,-0.5542 -0.73027,-0.39855 -0.64615,-0.50433 -0.78477,-0.5699 -0.73684,-0.536436 -0.71115,-0.509762 -0.69861,-0.532291 0.45473,-0.733718 0.41125,-0.909042 0.45115,-0.747455 0.40525,-0.789918 0.42896,-0.78321 0.4336,-0.791642 0.49842,-0.790061 0.42433,-0.800983 0.41061,-0.768778 0.42746,-0.797638 0.45064,-0.782237 0.43143,-0.790851 0.43264,-0.783817 0.41207,-0.85121 0.44266,-0.726339 0.44836,-0.865578 0.37301,-0.78418 0.43251,-0.772832 0.42886,-0.838232 0.36984,-0.73281 0.44616,-0.794975 0.45193,-0.824447 0.42896,-0.769673 0.46857,-0.810135 0.42457,-0.711071 m -25.409573,36.971231 0.585851,-0.68342 0.572084,-0.70504 0.522601,-0.68567 0.580134,-0.7592 0.602038,-0.66552 0.511384,-0.59902 0.734347,-0.69564 0.554174,-0.79768 0.535923,-0.67846 0.579289,-0.68006 0.583692,-0.7049 0.581196,-0.67425 0.589298,-0.69702 0.573958,-0.6853 0.646928,-0.69381 0.524202,-0.65748 0.596202,-0.61846 0.630913,-0.73213 0.524399,-0.73698 0.634218,-0.71875 0.504882,-0.62239 0.64293,-0.70943 0.56767,-0.664693 0.63284,-0.68172 0.56267,-0.604852 m -14.573823,17.151875 -0.401467,-0.74284 -0.475646,-0.80284 -0.398258,-0.86862 -0.384801,-0.69845 -0.61556,-0.8796 -0.456523,-0.64166 -0.439939,-0.85377 -0.471077,-0.76775 -0.421294,-0.75641 -0.39844,-0.7583 -0.521363,-0.87275 -0.447452,-0.75915 -0.462295,-0.75961 -0.506942,-0.81057 -0.460668,-0.81475 -0.408511,-0.72539 -0.44537,-0.7807 -0.497806,-0.75863 -0.46353,-0.81364 -0.592163,-0.76847 -0.41283,-0.730726 -0.531413,-0.672722 -0.479347,-0.797704 -0.508921,-0.748817 -0.520133,-0.749362 m -9.596854,4.595551 0.764959,-0.29549 0.867213,-0.44105 0.892916,-0.347852 0.729707,-0.323763 0.815377,-0.379464 0.792714,-0.417098 0.893274,-0.439496 0.711988,-0.364833 0.855157,-0.431838 0.728149,-0.367417 0.781892,-0.48563 0.803843,-0.310543 m -7.560099,-21.265682 0.247614,0.844599 0.275267,0.85841 0.340926,0.85414 0.367585,0.835942 0.321556,0.836182 0.256668,0.904987 0.2838,0.822975 0.296916,0.853474 0.225177,0.856363 0.339385,0.876421 0.27254,0.862981 0.377531,0.782588 0.25031,0.80913 0.32471,0.900427 0.258388,0.919803 0.351963,0.863899 0.299799,0.821682 0.304017,0.831526 0.309168,0.843209 0.284497,0.905259 0.310874,0.79593 0.331583,0.839497 0.342255,0.887139 0.330592,0.842859 0.340438,0.752831 m 37.070747,-17.597054 -0.95609,-0.1194 -0.84759,-0.175325 -0.78547,-0.151456 -1.01513,-0.21827 -0.7758,-0.08685 -0.98577,-0.141266 -0.87101,-0.147849 -0.94402,-0.227977 -0.78985,-0.120112 -0.91018,-0.186885 -0.87779,-0.192705 -0.87057,-0.15923 -0.8449,-0.106406 -0.97104,-0.15063 -0.9158,-0.212847 -0.776397,-0.171907 -0.938899,-0.145549 -0.886888,-0.184317 -0.938572,-0.08319 -0.819572,-0.196538 -0.919054,-0.189629 -0.883373,-0.180072 -0.871736,-0.185182 -0.897763,-0.190739 -0.821629,-0.121681 m 0.79629,-10.691671 -0.06854,0.884262 -0.07207,0.910975 -0.06093,0.872704 -0.07025,0.877217 -1.18e-4,0.82686 -0.120233,0.937682 -0.05191,0.871446 -0.07431,0.881705 -0.09032,0.898131 -0.07243,0.922161 -0.125541,0.881264 -0.05792,0.879886 m 11.355837,23.817448 -0.8769,0.03336 -0.87478,-0.056 -1.02583,-0.05083 -0.8905,-0.06781 -0.878901,-0.07093 -0.972337,-0.0644 -0.939878,-0.07962 -0.815624,-0.07894 -0.905645,-0.06766 -0.908504,-0.08747 -0.921217,-0.07786 -0.941634,-0.0817 -0.8746,-0.08106 -0.879598,-0.110355 -0.892519,-0.07699 -0.938826,-0.07725 -0.919797,-0.05222 -0.979336,-0.0012 -0.822229,-0.111101 -0.909938,-0.08235 -0.821738,-0.006 -0.995093,-0.09945 -0.930665,-0.05818 -0.907361,-0.07302 -0.901597,-0.07755 -0.808108,-0.153702 -1.006323,-0.0876 -0.902577,-0.03202 -0.917109,-0.108394 0.422238,-0.679031 0.607697,-0.840384 0.438796,-0.780801 0.515402,-0.720577 0.540451,-0.784674 0.519973,-0.813522 0.550108,-0.638698 0.58737,-0.788868 0.53152,-0.68158 0.51313,-0.757837 0.559608,-0.72026 0.511232,-0.745818 0.542131,-0.694436 0.535032,-0.817689 0.455158,-0.771225 0.524346,-0.763016 0.423325,-0.823815 0.487787,-0.732937 0.541711,-0.755715 0.528257,-0.732543 0.487206,-0.754848 0.548638,-0.766684 0.506676,-0.777578 0.490155,-0.699295 0.575864,-0.789766 0.497553,-0.709623 0.578191,-0.693262 0.508675,-0.787102 0.510751,-0.700029 0.363164,0.806779 0.408919,0.836015 0.421677,0.866204 0.391554,0.801242 0.459573,0.710992 0.395233,0.860961 0.361112,0.818915 0.47252,0.840297 0.309915,0.796475 0.447828,0.868618 0.380777,0.791551 0.374901,0.822053 0.459236,0.781809 0.375975,0.808 0.409834,0.816403 0.36844,0.833349 0.389535,0.820992 0.361042,0.833757 0.355692,0.851482 0.375509,0.784318 0.34175,0.855139 0.4155,0.881988 0.396037,0.80221 0.40364,0.8475 0.29832,0.717272 0.3618,0.858838 0.39069,0.857269 0.49146,0.82896 z m -33.886976,-23.329264 0.917835,-0.04355 0.882406,0.01208 0.915572,0.01369 0.884957,-0.04525 0.876688,-0.0264 0.941068,-0.0296 0.851712,-0.02405 0.893076,-0.007 0.945049,0.004 0.932615,0.01998 0.921109,-0.03251 0.81883,-0.01199 0.933023,-0.0306 0.925362,-0.02262 0.835084,0.04118 0.877853,0.02299 0.960617,-0.01945 0.950676,-0.04287 0.870027,-0.03725 0.864542,-0.0243 0.954374,-0.06586 0.950754,-0.106316 0.814263,-0.003 0.926926,-0.01402 0.89345,-0.08906 m -3.303593,41.162822 -0.779922,-0.58086 -0.715538,-0.50638 -0.738945,-0.50575 -0.713319,-0.55487 -0.84272,-0.48973 -0.741723,-0.60625 -0.737482,-0.51844 -0.755685,-0.52047 -0.758758,-0.51239 -0.882015,-0.46741 -0.721596,-0.55626 -0.698546,-0.52723 -0.856379,-0.51187 -0.817415,-0.55216 -0.644214,-0.48614 -0.782113,-0.52145 -0.747698,-0.51234 -0.767503,-0.53153 -0.762863,-0.5249 -0.737605,-0.50704 -0.784781,-0.54441 -0.760164,-0.53006 -0.752717,-0.53214 -0.803422,-0.5362 -0.799654,-0.48624 -0.738029,-0.51385 -0.739167,-0.56234 -0.732458,-0.53048 0.112932,-1.001837 0.0586,-0.841157 0.0806,-0.934397 0.06302,-0.9534 0.111328,-0.953379 0.13997,-0.823192 0.0364,-0.900495 0.04793,-0.973115 0.05353,-0.968148 0.146109,-0.867411 0.03467,-0.844356 0.06424,-1.014976 0.04209,-0.903719 0.07138,-0.964875 0.08212,-0.89212 0.0746,-0.980841 0.08777,-0.892279 0.116255,-0.974589 0.04916,-0.850497 0.0833,-0.933741 0.06151,-0.93429 0.133505,-0.852552 -0.0075,-1.018557 0.0079,-0.999294 0.08534,-0.832157 0.07314,-0.865632 0.159305,-1.040084 0.01739,-0.859691 0.856411,-0.375675 0.804342,-0.368104 0.860199,-0.402534 0.809125,-0.37027 0.884766,-0.428204 0.835054,-0.402211 0.814458,-0.391027 0.871282,-0.331482 0.810386,-0.41627 0.769592,-0.406882 0.912852,-0.410084 0.858866,-0.374204 0.809547,-0.358545 0.792011,-0.370252 0.840973,-0.473926 0.887701,-0.452907 0.80602,-0.387932 0.864793,-0.409634 0.843883,-0.41103 0.752735,-0.380751 0.897397,-0.362767 0.789086,-0.395323 0.861492,-0.421628 0.904753,-0.360899 0.784211,-0.396982 0.814989,-0.416988 0.814958,-0.462592 0.881551,-0.435465 0.833635,0.499861 0.742643,0.483639 0.698341,0.630135 0.737145,0.543762 0.730852,0.50316 0.705337,0.556395 0.780388,0.493523 0.786965,0.569148 0.775063,0.609276 0.705297,0.473039 0.73314,0.549449 0.78834,0.555365 0.82887,0.574794 0.73719,0.458325 0.70464,0.470442 0.889,0.498664 0.73543,0.511735 0.79683,0.522715 0.73425,0.513265 0.72531,0.558002 0.73522,0.461045 0.85926,0.55555 0.72967,0.516371 0.82308,0.470302 0.73575,0.57785 0.77428,0.536289 0.70101,0.526122 0.7156,0.545219 -0.0456,0.880777 -0.0727,0.957983 -0.0944,0.922377 -0.0736,0.936151 -0.0858,0.905471 -0.0737,0.942644 -0.0717,0.954499 -0.1046,0.979669 0.033,0.741411 -0.0559,1.02321 -0.0663,0.946935 -0.049,0.865582 -0.10044,0.973176 -0.0817,0.917495 10e-5,0.840427 -0.0419,0.95623 -0.10509,0.963913 -0.0926,0.945712 -0.0925,0.923993 -0.11429,0.901682 -0.0119,0.914682 -0.094,0.959662 -0.0908,0.868306 -0.15581,0.94166 -0.14477,0.88659 -0.0954,1.03939 -0.0281,0.9037 -0.0687,0.91678 -0.86841,0.4762 -0.77924,0.37144 -0.82437,0.38964 -0.82201,0.3937 -0.86243,0.40325 -0.8503,0.41095 -0.81471,0.38009 -0.84975,0.37084 -0.81997,0.39671 -0.91556,0.4912 -0.78231,0.31211 -0.81433,0.38237 -0.77918,0.4395 -0.914368,0.40283 -0.731935,0.41575 -0.894091,0.38054 -0.851677,0.3714 -0.83107,0.37776 -0.771586,0.31151 -0.875863,0.44465 -0.925173,0.44873 -0.765279,0.3861 -0.79429,0.34937 -0.86093,0.41552 -0.812765,0.39643 -0.891804,0.38739 -0.814673,0.38158 z"
       inkscape:original-d="m 111.2844,104.6036 -8.78053,-6.087206 10.85761,-19.782951 M 87.888687,115.73608 102.50387,98.516395 M 87.888687,115.73608 76.208824,96.396293 m -9.63874,4.602107 9.63874,-4.602107 m -7.56165,-21.268049 7.56165,21.268049 M 113.36148,78.733443 91.188547,74.636241 m 0.85433,-10.640474 -0.85433,10.640474 M 102.50388,98.516395 76.208824,96.396293 91.188547,74.636241 Z M 68.647174,75.128244 91.188547,74.636241 M 87.888687,115.73608 66.570084,100.9984 68.647174,75.128244 92.042877,63.995767 113.36148,78.733443 111.2844,104.6036 Z"
       inkscape:path-effect="#path-effect4329" />
    <path
       id="path1548-9-0-8"
       style="fill:none;stroke:#643f27;stroke-width:0.8;stroke-linecap:butt;stroke-linejoin:miter;stroke-miterlimit:4;stroke-dasharray:none;stroke-opacity:1"
       d="m 137.0567,66.470389 -0.27963,-0.302952 -0.43245,-0.241995 -0.30989,-0.09549 -0.31313,-0.216677 -0.33095,-0.231185 -0.40107,-0.280592 -0.32965,-0.110021 -0.24073,-0.229239 -0.38512,-0.297513 -0.33629,-0.26002 -0.30845,-0.230531 -0.29397,-0.255656 0.21856,-0.294797 0.17109,-0.486265 0.21453,-0.30974 0.16459,-0.356045 0.19046,-0.348805 0.19553,-0.357983 0.26624,-0.356257 0.18555,-0.368216 0.17047,-0.332942 0.1888,-0.364496 0.21408,-0.347709 0.19319,-0.357182 0.19446,-0.349443 0.17202,-0.422999 0.2053,-0.286793 0.21156,-0.438626 0.12936,-0.349846 0.1945,-0.338097 0.19032,-0.40871 0.12585,-0.294977 0.21125,-0.36214 0.21627,-0.393175 0.1904,-0.33482 0.23391,-0.377747 0.1828,-0.267986 m -11.44337,16.688949 0.26557,-0.305439 0.25055,-0.329031 0.19657,-0.307907 0.25964,-0.388172 0.2836,-0.286467 0.18406,-0.213086 0.42811,-0.318267 0.23068,-0.42981 0.21102,-0.300472 0.25863,-0.30225 0.2632,-0.328915 0.26056,-0.295784 0.26926,-0.320216 0.25259,-0.307674 0.33238,-0.316972 0.19737,-0.276685 0.27755,-0.234861 0.31433,-0.357532 0.19847,-0.363836 0.31994,-0.345601 0.17603,-0.239356 0.32999,-0.333331 0.2446,-0.284317 0.31714,-0.303195 0.23832,-0.219223 m -6.56016,7.708399 -0.13944,-0.316077 -0.22057,-0.381531 -0.13605,-0.45329 -0.122,-0.269128 -0.37459,-0.465274 -0.19802,-0.204775 -0.18113,-0.436307 -0.2158,-0.344211 -0.16093,-0.330884 -0.13695,-0.333425 -0.27259,-0.458495 -0.18919,-0.334832 -0.20596,-0.335195 -0.2547,-0.39011 -0.20274,-0.395058 -0.14633,-0.300515 -0.18905,-0.359414 -0.24697,-0.335556 -0.20627,-0.391505 -0.34932,-0.348655 -0.14321,-0.29722 -0.28369,-0.242599 -0.2214,-0.367042 -0.25821,-0.322005 -0.26925,-0.320292 m -4.3105,2.072753 0.32127,-0.0773 0.43302,-0.236915 0.46063,-0.134177 0.28516,-0.1077 0.37702,-0.169994 0.35216,-0.210723 0.45987,-0.233792 0.26488,-0.150454 0.41865,-0.225968 0.28109,-0.154574 0.33838,-0.285839 0.36237,-0.09505 m -3.41576,-9.609438 0.0769,0.377801 0.10716,0.392997 0.17888,0.388405 0.20765,0.368075 0.15748,0.368541 0.0867,0.443821 0.11624,0.354076 0.13066,0.387508 0.0524,0.390664 0.17757,0.41335 0.10379,0.397491 0.2187,0.310894 0.0794,0.337834 0.16157,0.438805 0.0887,0.459771 0.19088,0.400509 0.1328,0.352012 0.13814,0.363536 0.14399,0.376177 0.11712,0.443826 0.14553,0.326351 0.1685,0.371243 0.18014,0.423357 0.16755,0.37559 0.17836,0.277609 m 16.70165,-7.910886 -0.4763,-0.02554 -0.3582,-0.08636 -0.29006,-0.06043 -0.54065,-0.133583 -0.27954,0.01 -0.50888,-0.04974 -0.38407,-0.05645 -0.46342,-0.143965 -0.29427,-0.02576 -0.42653,-0.09948 -0.39064,-0.105475 -0.38269,-0.06896 -0.35501,-0.01147 -0.49319,-0.06054 -0.43324,-0.127496 -0.27938,-0.08208 -0.45699,-0.05439 -0.40137,-0.09661 -0.4568,0.01402 -0.33154,-0.109873 -0.43347,-0.102561 -0.39644,-0.0914 -0.38384,-0.097 -0.41192,-0.103136 -0.32922,-0.02757 m 0.32279,-4.864775 -0.0293,0.398078 -0.0331,0.427219 -0.021,0.38547 -0.0311,0.390418 0.0454,0.33546 -0.0869,0.457452 -0.011,0.383129 -0.0358,0.395694 -0.0532,0.413177 -0.0332,0.439072 -0.0907,0.394995 -0.0172,0.392926 m 5.1581,10.724145 -0.37726,0.08311 -0.37502,-0.01455 -0.53979,-0.0091 -0.3924,-0.02716 -0.3795,-0.03064 -0.48137,-0.02368 -0.44622,-0.03985 -0.31044,-0.03883 -0.40843,-0.02722 -0.41183,-0.04887 -0.42541,-0.03832 -0.44785,-0.04241 -0.37472,-0.04148 -0.38009,-0.07366 -0.39396,-0.03731 -0.44478,-0.03764 -0.42405,-0.01026 -0.48916,0.04544 -0.31946,-0.07346 -0.41213,-0.0432 -0.31694,0.04006 -0.5079,-0.06416 -0.43544,-0.01659 -0.41176,-0.03241 -0.40485,-0.0373 -0.30261,-0.120621 -0.51433,-0.04933 -0.40524,0.01214 -0.42094,-0.0716 0.13057,-0.261318 0.33323,-0.437238 0.14856,-0.372286 0.23261,-0.307118 0.2596,-0.376311 0.23716,-0.408083 0.26994,-0.21804 0.3102,-0.380329 0.24976,-0.264047 0.22989,-0.347497 0.28042,-0.306238 0.22809,-0.334755 0.26134,-0.278152 0.2539,-0.414008 0.16654,-0.361243 0.24131,-0.351841 0.13192,-0.419184 0.20179,-0.320113 0.26108,-0.345169 0.24599,-0.319559 0.20131,-0.343856 0.26881,-0.357234 0.22238,-0.368719 0.20462,-0.28427 0.29849,-0.381738 0.21209,-0.294468 0.30084,-0.276619 0.2253,-0.380333 0.22693,-0.28268 0.14687,0.353966 0.19681,0.385866 0.21069,0.418779 0.17784,0.347921 0.25207,0.249472 0.18201,0.414138 0.14459,0.367059 0.26597,0.390264 0.0898,0.343712 0.23862,0.420424 0.16687,0.337735 0.15995,0.370715 0.2517,0.326465 0.16199,0.357698 0.19752,0.364541 0.15292,0.384152 0.17519,0.368777 0.14456,0.383772 0.13815,0.401734 0.15987,0.328027 0.12304,0.407247 0.20312,0.434563 0.18335,0.348764 0.19176,0.398705 0.0774,0.256184 0.14363,0.410153 0.17654,0.408687 0.28675,0.37831 z m -15.33442,-10.505952 0.42515,-0.03493 0.38654,0.02573 0.42265,0.02751 0.3894,-0.03676 0.38016,-0.01623 0.45048,-0.01973 0.35301,-0.01365 0.39814,0.0049 0.45484,0.01691 0.44137,0.03435 0.42917,-0.02273 0.31701,-2.19e-4 0.44181,-0.02116 0.43325,-0.01217 0.33487,0.05761 0.38297,0.03666 0.4736,-0.01068 0.46147,-0.03451 0.37241,-0.02683 0.36643,-0.01367 0.46497,-0.0601 0.45935,-0.102395 0.3112,0.0092 0.43487,-0.0018 0.39854,-0.0838 m -1.49544,18.643634 -0.36433,-0.297345 -0.29409,-0.216242 -0.31966,-0.215455 -0.2917,-0.268929 -0.43337,-0.197948 -0.32221,-0.324754 -0.31842,-0.229764 -0.33798,-0.23157 -0.34127,-0.222632 -0.47566,-0.173435 -0.30031,-0.270084 -0.27548,-0.238878 -0.44799,-0.222183 -0.40504,-0.265844 -0.21648,-0.193816 -0.36666,-0.232546 -0.32915,-0.222623 -0.35075,-0.243591 -0.3457,-0.236341 -0.31815,-0.216851 -0.36957,-0.257684 -0.34276,-0.24196 -0.33462,-0.244223 -0.38994,-0.24865 -0.38597,-0.194065 -0.32068,-0.224499 -0.3198,-0.277353 -0.31038,-0.242113 0.0758,-0.502555 0.0167,-0.327315 0.0405,-0.428955 0.0213,-0.449733 0.0741,-0.449651 0.10554,-0.30781 -0.008,-0.39294 0.004,-0.470722 0.011,-0.465491 0.11209,-0.355733 -0.01,-0.33171 0.022,-0.516415 -0.001,-0.395329 0.0304,-0.461986 0.0423,-0.38283 0.034,-0.479718 0.0486,-0.383001 0.0795,-0.472989 0.007,-0.338176 0.0433,-0.4279 0.0196,-0.429146 0.0983,-0.339453 -0.0573,-0.523489 -0.0384,-0.496761 0.0448,-0.317833 0.0331,-0.353517 0.12752,-0.544108 -0.028,-0.347342 0.40037,-0.155783 0.34363,-0.147531 0.40453,-0.185192 0.34882,-0.149923 0.43132,-0.213294 0.37707,-0.184645 0.35462,-0.172448 0.41658,-0.107574 0.35111,-0.200536 0.30521,-0.189728 0.46136,-0.193439 0.40337,-0.154244 0.34992,-0.137188 0.33059,-0.150471 0.38325,-0.2641 0.43306,-0.239524 0.34524,-0.168648 0.40957,-0.192662 0.38693,-0.194016 0.2874,-0.160887 0.44489,-0.141655 0.32805,-0.17754 0.40536,-0.206073 0.45304,-0.139445 0.3255,-0.179217 0.35409,-0.200737 0.35361,-0.250482 0.42626,-0.220219 0.42293,0.208989 0.32424,0.1913 0.27565,0.351285 0.31694,0.256365 0.31083,0.212629 0.28295,0.270671 0.36532,0.202112 0.37178,0.284336 0.35918,0.328419 0.28349,0.180538 0.31327,0.262749 0.37446,0.26958 0.41802,0.290883 0.31726,0.164728 0.28121,0.176445 0.48339,0.207064 0.31504,0.221355 0.38275,0.233945 0.31469,0.223568 0.30471,0.272447 0.31553,0.166657 0.45063,0.270081 0.3102,0.227016 0.41123,0.176754 0.31989,0.296583 0.35601,0.246436 0.27906,0.237367 0.29123,0.258447 -0.002,0.370489 -0.0319,0.454704 -0.0555,0.415877 -0.0328,0.430892 -0.0462,0.397427 -0.033,0.438009 -0.0308,0.45091 -0.0668,0.478356 0.083,0.218547 -0.0139,0.525902 -0.025,0.442948 -0.006,0.354087 -0.0626,0.471635 -0.0417,0.410194 0.0476,0.326375 1.7e-4,0.45428 -0.0686,0.462487 -0.0536,0.440441 -0.0531,0.417263 -0.0769,0.392866 0.0347,0.406391 -0.0559,0.45883 -0.051,0.356509 -0.12307,0.436051 -0.10964,0.375074 -0.0545,0.54518 0.0148,0.396917 -0.0255,0.40687 -0.41347,0.265446 -0.31629,0.151485 -0.36542,0.171033 -0.36286,0.175405 -0.40701,0.18578 -0.39366,0.194271 -0.35489,0.160743 -0.39306,0.150489 -0.36046,0.178653 -0.46494,0.281788 -0.31968,0.08739 -0.35397,0.162855 -0.31614,0.225339 -0.46441,0.185375 -0.26411,0.199544 -0.44293,0.160988 -0.39441,0.150791 -0.37229,0.157897 -0.30771,0.0857 -0.4214,0.231201 -0.47539,0.235371 -0.30092,0.167331 -0.33285,0.1271 -0.40517,0.19894 -0.35286,0.178302 -0.43925,0.168274 -0.35466,0.162321 z"
       inkscape:path-effect="#path-effect4362"
       inkscape:original-d="m 137.0567,66.470389 -3.96833,-2.75109 4.90706,-8.940835 m -11.51234,16.72321 6.60528,-7.782374 m -6.60528,7.782374 -5.27867,-8.740547 m -4.35619,2.079905 4.35619,-2.079905 m -3.41745,-9.61202 3.41745,9.61202 m 16.79101,-7.982663 -10.02098,-1.851716 m 0.38611,-4.808924 -0.38611,4.808924 m 5.11392,10.792552 -11.88395,-0.958173 6.77003,-9.834379 z m -15.3014,-10.570193 10.18748,-0.222359 m -1.49136,18.574926 -9.63486,-6.660642 0.93874,-11.691925 10.57359,-5.031283 9.63487,6.66064 -0.93873,11.691925 z" />
  </g>
</svg>
